# xmcd
#
# Track frame offsets: 
#        150
#        20122
#        39992
#        60000
#        84260
#        102422
#        129035
#        153345
#        173022
#        192430
#        219880
#        237960
#
# Disc length: 3383 seconds
#
# Revision: 0
# Processed by: cddbd v1.5.2PL0 Copyright (c) Steve Scherf et al.
# Submitted via: ExactAudioCopy v0.95b4
#
DISCID=880d350c
DTITLE=김동환 - 김동환 4TH
DYEAR=2005
DGENRE=Blues
TTITLE0=내 마음 속에 음악이 흐르면
TTITLE1=바램
TTITLE2=그대 멀리 있어도
TTITLE3=사랑할 수 있을까
TTITLE4=무지개 언덕을 넘어서
TTITLE5=우리가 찾던 세상
TTITLE6=멈추지 말아요
TTITLE7=아름다워
TTITLE8=그런 인생길
TTITLE9=이제 그만
TTITLE10=자유로운 새
TTITLE11=묻어버린 아품(Bonus Track)
EXTD=
EXTT0=
EXTT1=
EXTT2=
EXTT3=
EXTT4=
EXTT5=
EXTT6=
EXTT7=
EXTT8=
EXTT9=
EXTT10=
EXTT11=
PLAYORDER=
